<svg xmlns="http://www.w3.org/2000/svg" width="980" height="440" viewBox="0 0 980 440">

<style>
.bg { fill: #ffffff; }
.frame { fill: #f8fafc; stroke: #cbd5e1; stroke-width: 1.2; }
.box { fill: #ffffff; stroke: #334155; stroke-width: 1.4; rx: 8; ry: 8; }
.title { font: 600 15px 'Segoe UI', Arial, sans-serif; fill: #0f172a; }
.meta { font: italic 12px 'Segoe UI', Arial, sans-serif; fill: #475569; }
.text { font: 12px 'Consolas', 'Courier New', monospace; fill: #1e293b; }
.small { font: 11px 'Segoe UI', Arial, sans-serif; fill: #334155; }
.rel { stroke: #0f172a; stroke-width: 1.5; fill: none; }
.rel-dashed { stroke: #0f172a; stroke-width: 1.5; fill: none; stroke-dasharray: 6 4; }
</style>

<defs>
  <marker id="arrow" viewBox="0 0 10 10" refX="9" refY="5" markerWidth="8" markerHeight="8" orient="auto-start-reverse">
    <path d="M 0 0 L 10 5 L 0 10 z" fill="#0f172a" />
  </marker>
  <marker id="triangle" viewBox="0 0 14 14" refX="12" refY="7" markerWidth="11" markerHeight="11" orient="auto-start-reverse">
    <path d="M 1 1 L 12 7 L 1 13 z" fill="#ffffff" stroke="#0f172a" stroke-width="1.4" />
  </marker>
</defs>
<rect class="bg" width="100%" height="100%"/>
<rect class="frame" x="8" y="8" width="964" height="424"/>
<text class="title" x="22" y="32">Factory Method: NotificationChannelCreator</text>
<rect class="box" x="60" y="70" width="360" height="190" />
<text class="meta" x="70" y="88">&lt;&lt;abstract&gt;&gt;</text>
<text class="title" x="70" y="108">NotificationChannelCreator</text>
<line class="rel" x1="60" y1="116" x2="420" y2="116"/>
<text class="text" x="70" y="134">+ create_channel(): NotificationChannel</text>
<text class="text" x="70" y="150">+ create_audited_channel(log): NotificationChannel</text>
<rect class="box" x="520" y="35" width="360" height="120" />
<text class="meta" x="530" y="53">&lt;&lt;interface&gt;&gt;</text>
<text class="title" x="530" y="73">NotificationChannel</text>
<line class="rel" x1="520" y1="81" x2="880" y2="81"/>
<text class="text" x="530" y="99">+ send(recipient, message): str</text>
<rect class="box" x="60" y="290" width="250" height="100" />
<text class="title" x="70" y="314">EmailChannelCreator</text>
<line class="rel" x1="60" y1="322" x2="310" y2="322"/>
<text class="text" x="70" y="340">+ create_channel()</text>
<rect class="box" x="330" y="290" width="250" height="100" />
<text class="title" x="340" y="314">PushChannelCreator</text>
<line class="rel" x1="330" y1="322" x2="580" y2="322"/>
<text class="text" x="340" y="340">+ create_channel()</text>
<line class="rel" x1="185" y1="290" x2="185" y2="260" marker-end="url(#triangle)"/>
<line class="rel" x1="455" y1="290" x2="300" y2="260" marker-end="url(#triangle)"/>
<line class="rel" x1="420" y1="145" x2="520" y2="95" marker-end="url(#arrow)"/>
<text class="small" x="470.0" y="114.0">creates</text>
</svg>
